# xmcd CD database file
#
# Track frame offsets:
#	150
#	16701
#	33152
#	57303
#	70266
#	83305
#	96618
#	110282
#	127258
#	144459
#	161610
#	179373
#	193324
#
# Disc length: 2756 seconds
#
# Revision: 0
# Processed by: cddbd v1.5.2PL0 Copyright (c) Steve Scherf et al.
# Submitted via: CDex 1.51
#
DISCID=af0ac20d
DTITLE=Various Artist - CitySky09
DYEAR=1995
DGENRE=Country
TTITLE0=UNCHAINED MELODY 奔放的旋律
TTITLE1=MOONLIGHT FLOWER 月光花
TTITLE2=THE WEDDING 婚禮
TTITLE3=I'LL NEVER FALL IN LOVE AGAIN 我不再戀愛
TTITLE4=FOLLOW ME 跟我來
TTITLE5=BEAUTIFUL SUNDAY 美麗星期天
TTITLE6=ALL KIND OF EVERYTHING 萬事萬物
TTITLE7=YOU NEEDED ME 你需要我
TTITLE8=DON'T EXPECT ME TO BE YOUR FRIEND 別期望我成為你的朋友
TTITLE9=PALOMA BLANCA 白鴿
TTITLE10=NEVER BEEN TO ME 未曾是我
TTITLE11=AULD LANG SYNE 驪歌心曲
TTITLE12=MOON RIVER 月河
EXTD=YEAR: 1995
EXTT0=
EXTT1=
EXTT2=
EXTT3=
EXTT4=
EXTT5=
EXTT6=
EXTT7=
EXTT8=
EXTT9=
EXTT10=
EXTT11=
EXTT12=
PLAYORDER=
